<?xml version="1.0" encoding="utf-8"?>
<!-- Generator: Adobe Illustrator 27.2.0, SVG Export Plug-In . SVG Version: 6.00 Build 0)  -->
<svg version="1.1" id="Layer_1" xmlns="http://www.w3.org/2000/svg" xmlns:xlink="http://www.w3.org/1999/xlink" x="0px" y="0px"
	 viewBox="0 0 293.46 335.98" style="enable-background:new 0 0 293.46 335.98;" xml:space="preserve">
<style type="text/css">
	.st0{fill:#009FE3;}
	.st1{font-family:'HelveticaRounded-Bold';}
	.st2{font-size:7.7633px;}
	.st3{font-family:'Helvetica';}
	.st4{font-size:6.3348px;}
	.st5{fill:none;stroke:#FEEB23;stroke-width:10;stroke-miterlimit:10;}
</style>
<g id="Small">
	<path class="st0" d="M104.14,285.94c2.31-1.33,4.43-2.55,6.66-3.83c0,3.1,0,6.07,0,9.2c-2.2-1.26-4.34-2.5-6.61-3.8
		c0,1.28,0,2.41,0,3.61c-0.57,0-1.08,0-1.65,0c0-2.91,0-5.83,0-8.81c0.51,0,1.01,0,1.59,0
		C104.14,283.44,104.14,284.57,104.14,285.94z"/>
	<path class="st0" d="M189.49,285.9c0-1.27,0-2.4,0-3.6c0.57,0,1.08,0,1.65,0c0,2.91,0,5.83,0,8.81c-0.51,0-1.02,0-1.6,0
		c0-1.15,0-2.28,0-3.64c-2.29,1.31-4.43,2.54-6.66,3.83c0-3.1,0-6.07,0-9.19C185.08,283.38,187.23,284.61,189.49,285.9z"/>
	<path class="st0" d="M216.15,290.03c-0.02,0.4-0.04,0.68-0.06,1.11c-0.74-0.42-1.41-0.8-2.23-1.26c0.79-0.47,1.43-0.85,2.18-1.29
		c0.05,0.35,0.09,0.6,0.14,0.9c1.31,0,2.61,0.06,3.9-0.02c1.71-0.11,2.83-1.79,2.39-3.46c-0.06-0.23-0.12-0.46-0.17-0.69
		c0.07-0.05,0.14-0.11,0.21-0.16c0.15,0.21,0.38,0.39,0.45,0.63c0.66,2.06-0.88,4.15-3.14,4.23
		C218.62,290.07,217.42,290.03,216.15,290.03z"/>
	<path class="st0" d="M213.4,288.31c-0.14-0.2-0.34-0.39-0.42-0.62c-0.61-1.86,0.6-3.86,2.57-4.17c0.7-0.11,1.42-0.09,2.13-0.1
		c0.68-0.02,1.35,0,2.08,0c0.04-0.37,0.07-0.66,0.11-1.09c0.73,0.41,1.41,0.8,2.22,1.26c-0.78,0.46-1.43,0.84-2.18,1.27
		c-0.06-0.32-0.11-0.56-0.17-0.88c-1.28,0-2.58-0.09-3.86,0.02c-1.86,0.16-2.89,1.81-2.37,3.62c0.05,0.17,0.1,0.34,0.15,0.52
		C213.57,288.19,213.49,288.25,213.4,288.31z"/>
	<path class="st0" d="M77.91,283.73c0.03-0.33,0.05-0.6,0.09-0.98c0.74,0.43,1.42,0.82,2.22,1.28c-0.77,0.45-1.43,0.83-2.19,1.27
		c-0.05-0.37-0.09-0.66-0.14-0.98c-0.86-0.01-1.49,0.36-2.01,0.97c-1.01,1.17-2,2.35-3.03,3.51c-0.61,0.69-1.34,1.13-2.5,1.04
		c0.23-0.26,0.33-0.47,0.44-0.48c0.96-0.09,1.53-0.72,2.1-1.39c0.67-0.81,1.39-1.58,2.04-2.4C75.7,284.59,76.57,283.8,77.91,283.73z
		"/>
	<path class="st0" d="M78.01,288.15c0.75,0.43,1.41,0.81,2.22,1.27c-0.79,0.45-1.47,0.84-2.22,1.27c-0.04-0.37-0.08-0.64-0.11-0.9
		c-1.88-0.48-2.77-1.19-2.6-2.15c0.78,0.63,1.35,1.62,2.58,1.45C77.92,288.83,77.95,288.56,78.01,288.15z"/>
	<path class="st0" d="M146.55,266.62c-11.07,0.01-20.08,9.05-20.07,20.11c0.01,11.06,9.05,20.08,20.11,20.07
		c11.06-0.01,20.08-9.05,20.07-20.11C166.64,275.62,157.6,266.6,146.55,266.62z M154.46,287.41c-4.1,2.37-8.2,4.73-12.3,7.09
		c-0.96,0.55-1.47,0.26-1.48-0.84c-0.01-2.39,0-4.77,0-7.16c0-2.35-0.01-4.71,0-7.06c0.01-1.18,0.5-1.47,1.51-0.89
		c4.1,2.36,8.2,4.72,12.3,7.1C155.45,286.21,155.44,286.84,154.46,287.41z"/>
	<path class="st0" d="M223.11,251.86H113.09c-0.29-0.99-1.2-1.71-2.28-1.71s-1.99,0.73-2.28,1.71H70.35v1.35h38.18
		c0.29,0.99,1.2,1.71,2.28,1.71s1.99-0.73,2.28-1.71h110.03V251.86z"/>
	<text transform="matrix(1 0 0 1 70.3512 227.7801)" class="st0 st1 st2">Song Name</text>
	<path class="st0" d="M209.52,227.25c0.06-1.44,0.68-2.59,2.01-3.29c1.33-0.7,2.68-0.61,3.9,0.27c0.78,0.56,1.2,0.43,1.82-0.02
		c2.28-1.64,5.51-0.2,5.84,2.58c0.14,1.14-0.19,2.12-0.94,2.98c-1.56,1.82-3.12,3.64-4.68,5.46c-0.72,0.84-1.57,0.84-2.28,0.01
		c-1.61-1.87-3.21-3.74-4.81-5.62C209.81,228.96,209.56,228.17,209.52,227.25z"/>
	<path class="st0" d="M73.41,285.71c-1.1-0.75-2-1.37-3.05-2.09c1.38-0.11,2.15,0.58,2.82,1.43
		C73.32,285.22,73.33,285.48,73.41,285.71z"/>
	<text transform="matrix(1 0 0 1 70.3659 235.4412)" class="st0 st3 st4">Artist Name</text>
	<rect x="5" y="5" class="st5" width="283.46" height="325.98"/>
	<g id="Small_Code">
		<path class="st0" d="M111.16,163.64c0,5.07-4.12,9.19-9.18,9.19c-5.09,0-9.2-4.12-9.2-9.21c0-5.07,4.14-9.19,9.23-9.18
			C107.05,154.45,111.16,158.58,111.16,163.64z M100.92,159.29c-1.49-0.01-3.09,0.11-4.65,0.58c-0.5,0.15-0.74,0.59-0.61,1.07
			c0.12,0.44,0.57,0.66,1.07,0.57c0.95-0.17,1.9-0.36,2.86-0.45c2.14-0.19,4.24,0.06,6.26,0.8c0.56,0.2,1.09,0.5,1.64,0.75
			c0.45,0.2,0.91,0.04,1.13-0.37c0.21-0.4,0.09-0.86-0.32-1.12c-0.21-0.13-0.42-0.25-0.64-0.35
			C105.56,159.75,103.34,159.37,100.92,159.29z M106.59,165.49c0.42,0,0.67-0.18,0.77-0.47c0.1-0.31,0.01-0.62-0.28-0.8
			c-0.26-0.17-0.54-0.32-0.83-0.46c-1.53-0.76-3.17-1.16-4.87-1.27c-1.54-0.1-3.08,0-4.56,0.48c-0.21,0.07-0.42,0.25-0.54,0.44
			c-0.13,0.22-0.07,0.5,0.11,0.71c0.18,0.2,0.41,0.27,0.69,0.22c0.81-0.16,1.61-0.38,2.43-0.43c2.36-0.15,4.63,0.24,6.71,1.44
			C106.37,165.42,106.53,165.47,106.59,165.49z M96.62,166.44c0,0.41,0.32,0.63,0.76,0.55c0.72-0.12,1.44-0.27,2.17-0.33
			c2.04-0.16,4,0.14,5.8,1.2c0.12,0.07,0.29,0.11,0.43,0.09c0.26-0.02,0.41-0.21,0.46-0.46c0.05-0.26-0.06-0.48-0.29-0.59
			c-0.67-0.32-1.33-0.68-2.02-0.92c-1.64-0.57-3.34-0.63-5.04-0.42c-0.58,0.07-1.15,0.18-1.72,0.29
			C96.79,165.92,96.62,166.12,96.62,166.44z"/>
		<path class="st0" d="M159.16,163.64c0-2.74,0-5.47,0-8.21c0-0.72,0.27-0.99,1-0.99c0.83,0,1.07,0.24,1.07,1.07
			c0,5.43,0,10.86,0,16.29c0,0.37-0.03,0.75-0.41,0.91c-0.43,0.18-0.9,0.2-1.32-0.04c-0.29-0.17-0.34-0.48-0.34-0.8
			C159.16,169.13,159.16,166.39,159.16,163.64z"/>
		<path class="st0" d="M126.97,163.64c0,2.73,0,5.45,0,8.18c0,0.37-0.03,0.75-0.41,0.91c-0.43,0.18-0.91,0.22-1.32-0.05
			c-0.17-0.11-0.24-0.38-0.33-0.59c-0.04-0.09-0.01-0.2-0.01-0.3c0-5.44,0-10.88,0-16.32c0-0.39,0.04-0.78,0.44-0.93
			c0.43-0.16,0.9-0.2,1.32,0.07c0.27,0.18,0.31,0.48,0.31,0.79C126.96,158.15,126.97,160.89,126.97,163.64z"/>
		<path class="st0" d="M189.62,163.61c0-2.73,0-5.46,0-8.18c0-0.71,0.27-0.98,0.98-0.98c0.12,0,0.25-0.01,0.37,0
			c0.35,0.03,0.61,0.25,0.68,0.6c0.02,0.11,0.04,0.22,0.04,0.33c0,5.51,0,11.01,0,16.52c0,0.34-0.06,0.68-0.41,0.83
			c-0.41,0.18-0.86,0.19-1.27-0.01c-0.32-0.15-0.39-0.47-0.39-0.8C189.62,169.14,189.62,166.38,189.62,163.61z"/>
		<path class="st0" d="M121.09,163.64c0-2.74,0-5.48,0-8.21c0-0.71,0.27-0.98,0.98-0.98c0.12,0,0.25-0.01,0.37,0
			c0.35,0.03,0.61,0.25,0.68,0.6c0.03,0.13,0.04,0.26,0.04,0.39c0,5.47,0,10.93,0,16.4c0,0.55-0.15,0.86-0.55,0.94
			c-0.31,0.06-0.65,0.06-0.96,0.01c-0.37-0.07-0.55-0.38-0.56-0.81c0-0.79,0-1.57,0-2.36C121.09,167.62,121.09,165.63,121.09,163.64
			z"/>
		<path class="st0" d="M138.37,163.65c0,2.75,0,5.49,0,8.24c0,0.67-0.27,0.94-0.95,0.94c-0.12,0-0.25,0.01-0.37,0
			c-0.39-0.03-0.68-0.31-0.72-0.7c-0.01-0.11-0.01-0.22-0.01-0.34c0-5.44,0-10.89,0-16.33c0-0.28-0.01-0.56,0.21-0.77
			c0.4-0.37,0.88-0.28,1.33-0.18c0.37,0.08,0.51,0.37,0.51,0.87C138.38,158.14,138.38,160.89,138.37,163.65z"/>
		<path class="st0" d="M130.77,163.65c0,2.38,0,4.76,0,7.14c0,0.7-0.27,0.96-0.96,0.97c-0.14,0-0.29,0-0.43-0.02
			c-0.34-0.04-0.58-0.25-0.64-0.6c-0.03-0.15-0.03-0.3-0.03-0.46c0-4.72,0-9.44,0-14.15c0-0.37,0.04-0.75,0.42-0.91
			c0.42-0.18,0.88-0.19,1.3,0.04c0.29,0.16,0.35,0.45,0.35,0.76c0,2.04,0,4.09,0,6.13C130.77,162.92,130.77,163.28,130.77,163.65z"
			/>
		<path class="st0" d="M165.03,163.67c0,2.37,0,4.74,0,7.11c0,0.71-0.27,0.98-0.98,0.98c-0.08,0-0.16,0-0.25,0
			c-0.54-0.02-0.82-0.3-0.84-0.84c-0.01-0.35,0-0.69,0-1.04c0-4.45,0-8.9,0.01-13.36c0-0.26,0.1-0.54,0.24-0.76
			c0.18-0.27,0.98-0.34,1.35-0.17c0.38,0.17,0.47,0.5,0.47,0.88C165.03,158.87,165.03,161.27,165.03,163.67z"/>
		<path class="st0" d="M176.44,163.64c0,2.39,0,4.78,0,7.17c0,0.7-0.26,0.95-0.96,0.95c-0.14,0-0.29,0-0.43-0.02
			c-0.36-0.05-0.61-0.31-0.64-0.67c-0.01-0.11-0.01-0.22-0.01-0.34c0-4.74,0-9.48,0-14.21c0-0.37,0.02-0.75,0.42-0.9
			c0.44-0.16,0.9-0.19,1.33,0.07c0.26,0.16,0.3,0.44,0.3,0.73c0,1.92,0,3.84,0,5.76C176.44,162.66,176.44,163.15,176.44,163.64z"/>
		<path class="st0" d="M155.35,163.64c0-2.03,0-4.06,0-6.09c0-0.68,0.28-0.96,0.97-0.96c0.06,0,0.12,0,0.18,0
			c0.62,0,0.91,0.29,0.92,0.92c0,0.45,0,0.9,0,1.35c0,3.61,0,7.23,0,10.84c0,0.55-0.15,0.86-0.55,0.94
			c-0.32,0.06-0.67,0.06-0.99-0.01c-0.36-0.07-0.52-0.38-0.52-0.83c0-1.56,0-3.12,0-4.68C155.35,164.62,155.35,164.13,155.35,163.64
			z"/>
		<path class="st0" d="M168.84,163.64c0,2.04,0,4.09,0,6.13c0,0.63-0.28,0.92-0.91,0.92c-0.13,0-0.27,0.01-0.4,0
			c-0.39-0.02-0.67-0.27-0.73-0.66c-0.02-0.12-0.02-0.24-0.02-0.37c0-4,0-8.01,0-12.01c0-0.2,0-0.42,0.08-0.6
			c0.22-0.53,0.71-0.46,1.16-0.46c0.38,0.01,0.65,0.17,0.76,0.5c0.04,0.13,0.06,0.28,0.06,0.42
			C168.84,159.55,168.84,161.6,168.84,163.64z"/>
		<path class="st0" d="M172.64,163.67c0,2.03,0,4.06,0,6.1c0,0.65-0.28,0.92-0.94,0.92c-0.13,0-0.27,0.01-0.4,0
			c-0.38-0.03-0.66-0.31-0.7-0.69c-0.01-0.1-0.01-0.2-0.01-0.31c0-4.02,0-8.05,0-12.07c0-0.2,0.01-0.42,0.08-0.6
			c0.14-0.33,0.43-0.44,0.77-0.44c0.42,0,0.86-0.05,1.09,0.42c0.07,0.15,0.09,0.33,0.09,0.5
			C172.64,159.56,172.64,161.61,172.64,163.67z"/>
		<path class="st0" d="M134.57,163.64c0,1.68,0,3.37,0,5.05c0,0.63-0.28,0.91-0.91,0.92c-0.17,0-0.35,0-0.52-0.02
			c-0.31-0.04-0.54-0.27-0.59-0.58c-0.03-0.14-0.03-0.28-0.03-0.43c0-3.31,0-6.62,0-9.92c0-0.74,0.26-0.99,0.99-1
			c0.31,0,0.65-0.03,0.84,0.25c0.12,0.18,0.21,0.43,0.21,0.64C134.58,160.25,134.57,161.94,134.57,163.64z"/>
		<path class="st0" d="M180.25,163.64c0,1.68,0,3.37,0,5.05c0,0.65-0.26,0.91-0.9,0.92c-0.15,0-0.31,0-0.46-0.02
			c-0.41-0.05-0.67-0.32-0.67-0.73c-0.01-0.45,0-0.9,0-1.35c0-2.96,0-5.92,0-8.88c0-0.72,0.25-0.97,0.98-0.96
			c0.22,0,0.46,0.02,0.65,0.1c0.32,0.13,0.41,0.42,0.41,0.76C180.25,160.23,180.25,161.93,180.25,163.64z"/>
		<path class="st0" d="M195.49,163.67c0,1.31,0,2.61,0,3.92c0,0.67-0.29,0.95-0.95,0.95c-0.09,0-0.18,0-0.28,0
			c-0.52-0.01-0.83-0.31-0.85-0.83c-0.01-0.27,0-0.53,0-0.8c0-2.4,0-4.8,0-7.19c0-0.7,0.28-0.98,0.98-0.98c0.03,0,0.06,0,0.09,0
			c0.74,0,1,0.27,1,1.02C195.49,161.06,195.49,162.37,195.49,163.67z"/>
		<path class="st0" d="M199.3,163.66c0,1.32,0,2.64,0,3.95c0,0.64-0.29,0.93-0.94,0.93c-0.08,0-0.16,0-0.25,0
			c-0.57,0-0.87-0.29-0.88-0.86c-0.01-0.56,0-1.12,0-1.69c0-2.08,0-4.17,0-6.25c0-0.74,0.27-0.98,1.02-1.01
			c0.81-0.04,1.07,0.4,1.06,1.07C199.28,161.08,199.3,162.37,199.3,163.66z"/>
		<path class="st0" d="M145.99,163.64c0,1.33,0,2.65,0,3.98c0,0.66-0.27,0.92-0.93,0.92c-0.08,0-0.16,0-0.25,0
			c-0.56,0-0.86-0.29-0.86-0.84c0-0.94,0-1.88,0-2.82c0-1.74,0-3.47,0-5.21c0-0.67,0.27-0.94,0.95-0.94c0.04,0,0.08,0,0.12,0
			c0.72,0,0.97,0.25,0.97,0.98C145.99,161.02,145.99,162.33,145.99,163.64z"/>
		<path class="st0" d="M147.75,163.63c0-1.34,0-2.68,0-4.01c0-0.59,0.29-0.88,0.88-0.88c0.14,0,0.29-0.01,0.43,0
			c0.39,0.02,0.68,0.3,0.72,0.7c0.01,0.12,0.01,0.24,0.01,0.37c0,2.57,0,5.15,0,7.72c0,0.37-0.02,0.75-0.4,0.92
			c-0.42,0.18-0.88,0.19-1.3-0.03c-0.26-0.14-0.35-0.4-0.35-0.7C147.75,166.35,147.75,164.99,147.75,163.63z"/>
		<path class="st0" d="M151.55,163.61c0-0.97,0-1.94,0-2.91c0-0.58,0.28-0.87,0.85-0.89c0.17-0.01,0.35,0,0.52,0.01
			c0.37,0.04,0.61,0.27,0.66,0.65c0.02,0.1,0.02,0.2,0.02,0.3c0,1.9,0,3.8,0,5.7c0,0.14,0,0.29-0.04,0.43
			c-0.07,0.29-0.26,0.48-0.56,0.54c-0.12,0.03-0.24,0.03-0.37,0.03c-0.86,0.01-1.09-0.22-1.09-1.07
			C151.55,165.46,151.55,164.54,151.55,163.61z"/>
		<path class="st0" d="M185.82,163.64c0-0.98,0-1.96,0-2.94c0-0.59,0.29-0.88,0.88-0.89c0.17,0,0.35,0,0.52,0.02
			c0.34,0.04,0.57,0.27,0.63,0.61c0.02,0.13,0.03,0.26,0.03,0.4c0,1.88,0,3.76,0,5.63c0,0.74-0.26,0.99-0.99,1
			c-0.1,0-0.2,0-0.31-0.01c-0.48-0.04-0.76-0.33-0.76-0.82C185.81,165.64,185.82,164.64,185.82,163.64z"/>
		<path class="st0" d="M142.18,163.63c0,0.99,0,1.98,0,2.97c0,0.57-0.27,0.85-0.83,0.87c-0.13,0.01-0.27,0.01-0.4,0
			c-0.53-0.03-0.81-0.3-0.81-0.83c0-2,0-4,0-6c0-0.52,0.27-0.79,0.78-0.82c0.11-0.01,0.22,0,0.34,0c0.64,0,0.91,0.28,0.92,0.91
			C142.18,161.69,142.18,162.66,142.18,163.63z"/>
		<path class="st0" d="M117.29,163.63c0-0.3-0.01-0.59,0-0.89c0.01-0.43,0.28-0.73,0.71-0.78c0.05-0.01,0.1-0.01,0.15-0.01
			c0.97-0.03,1.2,0.19,1.2,1.16c0,0.4,0,0.8,0,1.19c0,0.77-0.25,1.02-1.03,1.02c-0.11,0-0.22,0-0.34-0.02
			c-0.41-0.05-0.67-0.34-0.69-0.76c0-0.01,0-0.02,0-0.03C117.29,164.22,117.29,163.92,117.29,163.63z"/>
		<path class="st0" d="M203.1,163.65c0,0.3,0.01,0.59,0,0.89c-0.01,0.43-0.28,0.72-0.71,0.77c-0.15,0.02-0.31,0.02-0.46,0.01
			c-0.6-0.01-0.88-0.28-0.89-0.89c-0.01-0.54-0.01-1.08,0-1.62c0.01-0.57,0.29-0.84,0.85-0.86c0.16,0,0.33-0.01,0.49,0.01
			c0.43,0.04,0.7,0.34,0.72,0.77c0,0.01,0,0.02,0,0.03C203.1,163.06,203.1,163.36,203.1,163.65z"/>
		<path class="st0" d="M182.01,163.62c0-0.31-0.01-0.61,0-0.92c0.01-0.39,0.27-0.67,0.65-0.73c0.05-0.01,0.1-0.01,0.15-0.02
			c0.81-0.04,1.3,0.06,1.24,1.17c-0.02,0.46,0,0.92-0.01,1.38c-0.01,0.52-0.28,0.79-0.79,0.82c-0.12,0.01-0.24,0.01-0.37,0
			c-0.61-0.01-0.88-0.29-0.89-0.91C182.01,164.15,182.01,163.88,182.01,163.62C182.01,163.62,182.01,163.62,182.01,163.62z"/>
	</g>
	<rect id="Small_Picture" x="92.58" y="29.19" class="st0" width="110.33" height="110.33"/>
</g>
</svg>
